<svg width="1200" height="630" viewBox="0 0 1200 630" fill="none" xmlns="http://www.w3.org/2000/svg">
  <!-- Background -->
  <rect width="1200" height="630" fill="#0F172A"/>

  <!-- Subtle grid pattern -->
  <defs>
    <pattern id="grid" width="60" height="60" patternUnits="userSpaceOnUse">
      <path d="M 60 0 L 0 0 0 60" fill="none" stroke="#1E293B" stroke-width="0.5"/>
    </pattern>
  </defs>
  <rect width="1200" height="630" fill="url(#grid)"/>

  <!-- Indigo glow behind logo -->
  <circle cx="160" cy="315" r="200" fill="#6366F1" opacity="0.08"/>

  <!-- Logo icon -->
  <rect x="80" y="235" width="80" height="80" rx="18" fill="#6366F1"/>
  <rect x="96" y="281" width="10" height="12" rx="3" fill="white" opacity="0.5"/>
  <rect x="110" y="269" width="10" height="24" rx="3" fill="white" opacity="0.7"/>
  <rect x="124" y="257" width="10" height="36" rx="3" fill="white" opacity="0.85"/>
  <rect x="138" y="245" width="10" height="48" rx="3" fill="white"/>
  <circle cx="143" cy="240" r="4" fill="white" opacity="0.6"/>

  <!-- Brand name -->
  <text x="180" y="270" font-family="system-ui, -apple-system, sans-serif" font-size="52" font-weight="800" fill="white" letter-spacing="-1">Data</text>
  <text x="316" y="270" font-family="system-ui, -apple-system, sans-serif" font-size="52" font-weight="800" fill="#818CF8" letter-spacing="-1">Hustle</text>

  <!-- Tagline -->
  <text x="182" y="305" font-family="system-ui, -apple-system, sans-serif" font-size="20" fill="#94A3B8" letter-spacing="0.5">Ghana's #1 Cheapest Data Bundle Platform</text>

  <!-- Divider line -->
  <rect x="80" y="345" width="500" height="1" fill="#334155"/>

  <!-- Price highlights -->
  <!-- MTN -->
  <rect x="80" y="375" width="160" height="90" rx="12" fill="#1E293B" stroke="#334155" stroke-width="1"/>
  <rect x="80" y="375" width="160" height="32" rx="12" fill="#FFCC00"/>
  <rect x="80" y="395" width="160" height="12" fill="#FFCC00"/>
  <text x="160" y="398" font-family="system-ui, sans-serif" font-size="14" font-weight="800" fill="#000" text-anchor="middle">MTN</text>
  <text x="160" y="432" font-family="system-ui, sans-serif" font-size="22" font-weight="800" fill="white" text-anchor="middle">GH₵4.20</text>
  <text x="160" y="452" font-family="system-ui, sans-serif" font-size="12" fill="#64748B" text-anchor="middle">1GB · No Expiry</text>

  <!-- Telecel -->
  <rect x="260" y="375" width="160" height="90" rx="12" fill="#1E293B" stroke="#334155" stroke-width="1"/>
  <rect x="260" y="375" width="160" height="32" rx="12" fill="#E30613"/>
  <rect x="260" y="395" width="160" height="12" fill="#E30613"/>
  <text x="340" y="398" font-family="system-ui, sans-serif" font-size="14" font-weight="800" fill="white" text-anchor="middle">TELECEL</text>
  <text x="340" y="432" font-family="system-ui, sans-serif" font-size="22" font-weight="800" fill="white" text-anchor="middle">GH₵19.50</text>
  <text x="340" y="452" font-family="system-ui, sans-serif" font-size="12" fill="#64748B" text-anchor="middle">5GB · Fast Delivery</text>

  <!-- AirtelTigo -->
  <rect x="440" y="375" width="160" height="90" rx="12" fill="#1E293B" stroke="#334155" stroke-width="1"/>
  <rect x="440" y="375" width="160" height="32" rx="12" fill="#7C3AED"/>
  <rect x="440" y="395" width="160" height="12" fill="#7C3AED"/>
  <text x="520" y="398" font-family="system-ui, sans-serif" font-size="14" font-weight="800" fill="white" text-anchor="middle">AIRTELTIGO</text>
  <text x="520" y="432" font-family="system-ui, sans-serif" font-size="22" font-weight="800" fill="white" text-anchor="middle">GH₵3.95</text>
  <text x="520" y="452" font-family="system-ui, sans-serif" font-size="12" fill="#64748B" text-anchor="middle">1GB · Wholesale</text>

  <!-- Right side — trust signals -->
  <rect x="700" y="180" width="420" height="270" rx="16" fill="#1E293B" stroke="#334155" stroke-width="1"/>

  <!-- Trust header -->
  <text x="910" y="225" font-family="system-ui, sans-serif" font-size="16" font-weight="700" fill="#818CF8" text-anchor="middle" letter-spacing="2">WHY DATA HUSTLE</text>

  <!-- Trust items -->
  <!-- Item 1 -->
  <circle cx="740" cy="272" r="14" fill="#6366F1" opacity="0.2"/>
  <text x="740" y="277" font-family="system-ui, sans-serif" font-size="14" fill="#818CF8" text-anchor="middle">✓</text>
  <text x="766" y="277" font-family="system-ui, sans-serif" font-size="16" font-weight="600" fill="white">10,000+ Active Resellers</text>

  <!-- Item 2 -->
  <circle cx="740" cy="317" r="14" fill="#6366F1" opacity="0.2"/>
  <text x="740" y="322" font-family="system-ui, sans-serif" font-size="14" fill="#818CF8" text-anchor="middle">✓</text>
  <text x="766" y="322" font-family="system-ui, sans-serif" font-size="16" font-weight="600" fill="white">5-Minute Avg. Delivery</text>

  <!-- Item 3 -->
  <circle cx="740" cy="362" r="14" fill="#6366F1" opacity="0.2"/>
  <text x="740" y="367" font-family="system-ui, sans-serif" font-size="14" fill="#818CF8" text-anchor="middle">✓</text>
  <text x="766" y="367" font-family="system-ui, sans-serif" font-size="16" font-weight="600" fill="white">No Account Needed</text>

  <!-- Item 4 -->
  <circle cx="740" cy="407" r="14" fill="#6366F1" opacity="0.2"/>
  <text x="740" y="412" font-family="system-ui, sans-serif" font-size="14" fill="#818CF8" text-anchor="middle">✓</text>
  <text x="766" y="412" font-family="system-ui, sans-serif" font-size="16" font-weight="600" fill="white">Secure Paystack Payments</text>

  <!-- CTA -->
  <rect x="700" y="480" width="420" height="56" rx="10" fill="#6366F1"/>
  <text x="910" y="515" font-family="system-ui, sans-serif" font-size="20" font-weight="700" fill="white" text-anchor="middle">Buy Data Now → datahustle.shop</text>

  <!-- Bottom bar -->
  <rect x="0" y="570" width="1200" height="60" fill="#0B1120"/>
  <text x="80" y="606" font-family="system-ui, sans-serif" font-size="14" fill="#475569">datahustle.shop</text>
  <text x="600" y="606" font-family="system-ui, sans-serif" font-size="14" fill="#475569" text-anchor="middle">Wholesale Data Bundles · MTN · Telecel · AirtelTigo · MoMo Payment</text>
  <text x="1120" y="606" font-family="system-ui, sans-serif" font-size="14" fill="#475569" text-anchor="end">24/7 Support</text>
</svg>
